<svg width="138" height="32" viewBox="0 0 138 32" fill="none" xmlns="http://www.w3.org/2000/svg">
<path d="M114.208 9.84202C111.435 8.58047 108.81 8.82149 106.41 10.5582C106.213 10.7061 106.024 10.8643 105.843 11.0319C105.779 11.0912 105.706 11.1518 105.637 11.2165V9.80759C105.637 8.7058 105.637 7.64396 105.637 6.58211C105.637 6.31906 105.637 6.05601 105.637 5.79434C105.637 5.09195 105.637 4.36753 105.624 3.65412C105.628 3.5084 105.602 3.36344 105.548 3.22805C105.494 3.09266 105.413 2.96969 105.309 2.86661C105.206 2.76354 105.083 2.68252 104.948 2.62849C104.812 2.57446 104.667 2.54855 104.521 2.55234C103.842 2.53444 103.369 2.93108 103.293 3.59766C103.277 3.77572 103.27 3.9546 103.274 4.1334V23.6212C103.274 23.7589 103.274 23.8966 103.284 24.0344C103.342 24.7354 103.757 25.1251 104.452 25.1362H104.473C104.623 25.1448 104.773 25.1236 104.915 25.0737C105.058 25.0238 105.188 24.9463 105.3 24.8456C105.517 24.6321 105.627 24.3071 105.627 23.8815C105.627 21.4025 105.627 18.7761 105.627 15.6071C105.613 15.0511 105.722 14.499 105.945 13.9895C106.169 13.48 106.501 13.0257 106.919 12.6585C108.107 11.587 109.583 11.1752 111.432 11.3997C113.557 11.66 115.029 12.9339 115.464 14.8799C115.58 15.4634 115.637 16.0574 115.632 16.6524C115.641 18.0462 115.641 19.4633 115.64 20.8337C115.64 21.8418 115.64 22.8486 115.64 23.8567C115.64 24.6514 116.086 25.1306 116.823 25.1362C116.978 25.1427 117.132 25.1187 117.277 25.0655C117.422 25.0123 117.555 24.931 117.669 24.8263C117.788 24.6966 117.88 24.5446 117.939 24.379C117.999 24.2135 118.024 24.0378 118.015 23.8622C118.015 23.1938 118.018 22.5258 118.025 21.8583C118.037 19.9867 118.05 18.0517 117.998 16.1497C117.925 13.0716 116.643 10.9479 114.208 9.84202Z" fill="white"/>
<path d="M76.1356 10.6872C74.1579 9.20391 71.5773 8.73565 69.0534 9.40223C68.0311 9.66774 67.0733 10.1374 66.238 10.783C65.4026 11.4285 64.7069 12.2364 64.193 13.1579C63.1333 15.0699 62.8655 17.3203 63.4469 19.4271C64.2385 22.406 66.1777 24.3479 69.0561 25.0434C69.7561 25.2169 70.4742 25.3066 71.1953 25.3106C73.3538 25.3106 75.2226 24.4237 76.7701 22.6567C76.815 22.6009 76.8483 22.5368 76.868 22.468L76.9287 22.5093V22.8881C76.9287 23.1993 76.9287 23.5092 76.9287 23.8204C76.9383 24.6798 77.3425 25.1343 78.1121 25.1343C78.8761 25.1343 79.3147 24.6537 79.3175 23.8177C79.3175 23.2668 79.3207 22.7136 79.3271 22.1581C79.3382 20.4862 79.3492 18.7591 79.3092 17.0624C79.2527 14.4828 78.0927 12.1608 76.1356 10.6872ZM76.9632 17.2552C76.9535 20.6087 74.4958 23.1332 71.2436 23.1332H71.2298C67.9459 23.1263 65.4743 20.5757 65.4798 17.2015C65.4689 16.4086 65.6157 15.6214 65.9119 14.8856C66.2081 14.1499 66.6477 13.4802 67.2052 12.9155C67.7361 12.3912 68.3656 11.9768 69.0575 11.6962C69.7494 11.4156 70.49 11.2745 71.2367 11.2808H71.256C74.5206 11.2932 76.9756 13.8603 76.9632 17.2552Z" fill="white"/>
<path d="M137.884 9.80018C137.726 9.50958 137.404 9.32228 136.955 9.25755C136.276 9.15839 135.973 9.60461 135.748 10.1018C134.086 13.7689 132.421 17.436 130.755 21.1031C130.706 21.2119 130.652 21.3193 130.588 21.446L130.548 21.5259L130.135 20.6555C129.776 19.9022 129.43 19.1764 129.085 18.4519L127.609 15.3408C126.77 13.5687 125.929 11.7962 125.087 10.0233C124.757 9.33467 124.303 9.1033 123.658 9.31264C123.298 9.4297 123.058 9.62389 122.945 9.8897C122.807 10.1982 122.857 10.5866 123.083 11.0424C125.249 15.5377 127.202 19.5881 129.173 23.6413C129.256 23.7808 129.301 23.9392 129.305 24.1012C129.309 24.2632 129.271 24.4236 129.195 24.5668C128.393 26.2911 127.602 28.054 126.837 29.759L126.615 30.2452C126.267 31.0192 126.422 31.5439 127.085 31.8482C127.269 31.9403 127.47 31.992 127.675 31.9997C127.77 31.9998 127.863 31.983 127.951 31.9502C128.22 31.851 128.44 31.6003 128.641 31.1665C129.901 28.4056 131.159 25.6443 132.416 22.8825L133.043 21.5053C134.635 18.0098 136.226 14.514 137.815 11.0176C138.032 10.5342 138.062 10.1128 137.884 9.80018Z" fill="white"/>
<path d="M95.0926 17.0819C94.3616 16.7238 93.5478 16.5117 92.7617 16.3051C92.4707 16.2294 92.1686 16.1509 91.8776 16.0655C91.5163 15.9608 91.1439 15.8699 90.7839 15.7804C90.1502 15.6387 89.526 15.4574 88.9151 15.2378C88.0255 14.8948 87.5703 14.136 87.7013 13.2201C87.8034 12.4902 88.2668 11.9806 89.1578 11.5978C90.9508 10.8361 93.3658 11.3223 94.7684 12.7202C94.9543 12.9157 95.1739 13.0762 95.4167 13.194C95.6528 13.309 95.9214 13.3396 96.1774 13.2807C96.4335 13.2218 96.6615 13.0769 96.8235 12.8703C97.1269 12.4571 97.0993 12.0261 96.72 11.5427C96.4893 11.2417 96.2287 10.9649 95.9421 10.7163C94.7009 9.65586 93.2265 9.17796 90.9935 9.12012C90.3246 9.12012 89.0157 9.21652 87.7758 9.83765C86.1856 10.6337 85.3994 11.8319 85.376 13.4928C85.3525 15.0518 86.1497 16.2473 87.6793 16.9538C88.4351 17.3022 89.2599 17.5254 90.0584 17.7416C90.3674 17.8256 90.6873 17.9124 90.9977 18.0046C91.308 18.0969 91.6652 18.1933 91.9921 18.2801C92.5893 18.4385 93.2058 18.6023 93.7851 18.8213C94.1155 18.9316 94.4117 19.1254 94.6449 19.3839C94.8782 19.6424 95.0404 19.9567 95.116 20.2963C95.3601 21.3981 94.6733 22.4421 93.483 22.7754C90.6598 23.5604 88.5551 23.1348 86.8628 21.4381C86.6745 21.2251 86.4131 21.0903 86.1301 21.0605C85.8472 21.0307 85.5633 21.1079 85.3346 21.2769C84.9981 21.4987 84.8036 21.781 84.7719 22.0922C84.7374 22.4462 84.9098 22.8236 85.2739 23.183C86.6628 24.5602 88.9688 25.2902 91.2046 25.2902C92.7948 25.2902 94.3492 24.9169 95.5091 24.1402C96.8359 23.2505 97.5696 21.8595 97.4717 20.4217C97.3738 18.9838 96.5076 17.7733 95.0926 17.0819Z" fill="white"/>
<path d="M47.7139 2.54199H47.5539C44.6727 2.54199 42.5128 4.29383 41.8991 7.14607C41.7791 7.76363 41.6953 8.38766 41.6481 9.01497C41.6219 9.29042 41.5957 9.56586 41.5626 9.84131H40.244C39.2082 9.84131 38.8386 10.1168 38.8345 10.8646C38.8345 11.2075 38.909 11.443 39.0731 11.6097C39.2841 11.8218 39.6386 11.9168 40.2233 11.9168H41.6481V23.6301C41.6422 23.8108 41.6486 23.9916 41.6674 24.1714C41.6906 24.4242 41.8052 24.6598 41.9897 24.8344C42.1742 25.0091 42.416 25.1107 42.6701 25.1203C42.7294 25.1203 42.7873 25.1272 42.8425 25.1272C43.1314 25.1438 43.4157 25.0491 43.6369 24.8628C43.8962 24.6245 44.0217 24.2375 44.0217 23.6783C44.0217 20.99 44.0217 18.3016 44.0217 15.6133V11.9209H45.012C45.8395 11.9209 46.6146 11.9209 47.4022 11.9127C47.5481 11.9171 47.6934 11.8924 47.8296 11.8399C47.9658 11.7874 48.0901 11.7082 48.1952 11.6069C48.2872 11.505 48.358 11.3857 48.4032 11.2561C48.4484 11.1265 48.4673 10.9892 48.4586 10.8522C48.4448 10.2462 48.0628 9.88813 47.4104 9.85095C47.176 9.83993 46.9387 9.84131 46.7098 9.84269H44.0617C44.0617 9.67742 44.0617 9.51766 44.0534 9.36203C44.0383 9.01681 44.0433 8.67099 44.0686 8.32636C44.2851 6.05393 45.4878 4.86951 47.747 4.70562C48.5235 4.64915 48.9703 4.22359 48.9455 3.56803C48.922 2.95378 48.4503 2.55852 47.7139 2.54199Z" fill="white"/>
<path d="M58.5683 22.8067H58.5132C57.3588 22.8067 56.8347 22.3935 56.5161 21.2628C56.4783 21.1433 56.4542 21.0199 56.4444 20.8951L56.4195 20.1527C56.3919 19.3829 56.3644 18.5882 56.363 17.8114C56.3575 14.9652 56.3575 12.1216 56.363 9.28088C56.363 7.4712 56.363 5.66198 56.363 3.85321C56.363 3.38909 56.2251 3.02688 55.9809 2.80239C55.853 2.69767 55.7041 2.62139 55.5443 2.57864C55.3845 2.5359 55.2174 2.52766 55.0541 2.55449C54.4059 2.62335 54.0473 3.08885 54.0459 3.86699C54.0459 5.86856 54.0459 7.87059 54.0459 9.87309V12.2447C54.0459 12.9122 54.0459 13.5806 54.0459 14.2499C54.0459 16.0637 54.0459 17.9409 54.0528 19.7864C54.0448 20.3902 54.091 20.9936 54.1907 21.5892C54.6045 23.7748 56.1685 25.1479 58.1642 25.1479C58.3435 25.1482 58.5227 25.1376 58.7007 25.1163C58.8938 25.1025 59.0811 25.0448 59.2485 24.9476C59.4158 24.8505 59.5587 24.7164 59.6662 24.5557C59.7595 24.3951 59.8146 24.2151 59.8273 24.0299C59.8399 23.8446 59.8098 23.6588 59.7393 23.487C59.5228 22.892 59.0331 22.8067 58.5683 22.8067Z" fill="white"/>
<path d="M13.7853 18.9725C12.7559 18.9722 11.7497 18.6671 10.8939 18.0958C10.0381 17.5246 9.37112 16.7127 8.97737 15.7629C8.58361 14.8131 8.48073 13.7681 8.68173 12.76C8.88273 11.7518 9.37858 10.8258 10.1066 10.099C10.8346 9.37226 11.7621 8.87736 12.7717 8.67692C13.7814 8.47648 14.8279 8.57949 15.7789 8.97293C16.73 9.36637 17.5428 10.0326 18.1147 10.8873C18.6866 11.742 18.9918 12.7469 18.9918 13.7748C18.9904 15.1531 18.4413 16.4745 17.4652 17.449C16.4891 18.4235 15.1656 18.9714 13.7853 18.9725ZM13.7853 10.7656C13.1893 10.7658 12.6068 10.9426 12.1114 11.2734C11.616 11.6042 11.23 12.0743 11.0021 12.6242C10.7742 13.1741 10.7148 13.7791 10.8312 14.3627C10.9476 14.9464 11.2347 15.4824 11.6563 15.9032C12.0778 16.3239 12.6147 16.6103 13.1993 16.7263C13.7838 16.8423 14.3897 16.7827 14.9403 16.5549C15.4908 16.3271 15.9614 15.9414 16.2925 15.4465C16.6236 14.9517 16.8003 14.3699 16.8003 13.7748C16.7992 12.9768 16.4811 12.2118 15.9159 11.6477C15.3507 11.0835 14.5845 10.7663 13.7853 10.7656Z" fill="#FFCB00"/>
<path d="M1.10624 20.81C0.981531 20.809 0.857744 20.7886 0.739366 20.7494C0.138029 20.5511 0.00838306 20.0305 0.00424542 19.6283C-0.00402986 18.6519 -0.00402956 12.0426 0.0401053 11.0482C0.278709 5.80783 4.53082 1.03573 9.73046 0.183227C10.4361 0.0705956 11.1495 0.0125793 11.8641 0.00969566C13.1468 -0.00132218 19.7256 5.50935e-05 19.7256 5.50935e-05C20.3573 5.50935e-05 20.8193 0.439391 20.829 1.04262C20.8328 1.18935 20.8071 1.33535 20.7536 1.47205C20.7001 1.60875 20.6197 1.73339 20.5173 1.83866C20.4191 1.93741 20.3021 2.01567 20.1733 2.06887C20.0445 2.12207 19.9064 2.14915 19.767 2.14853C18.9491 2.14853 12.6861 2.14853 11.9331 2.1568C9.69501 2.1505 7.52332 2.91545 5.78455 4.32254C4.04578 5.72962 2.84641 7.69265 2.38891 9.8803C2.24316 10.6306 2.17568 11.394 2.18754 12.1582C2.17789 13.552 2.18754 18.3213 2.17651 19.6049C2.16823 20.3032 1.72137 20.81 1.10624 20.81Z" fill="#FFCB00"/>
<path d="M11.394 27.5497C9.99001 27.5497 9.17214 27.5497 7.7681 27.5305C7.31985 27.5305 7.06332 27.3556 6.85368 26.9217C6.64404 26.4879 6.67852 26.1904 6.97091 25.7952C7.15986 25.5417 7.39295 25.3723 7.92119 25.3723C9.47142 25.3723 10.4286 25.3806 11.9719 25.3806C13.2077 25.3806 14.4439 25.3779 15.6806 25.3723C17.8245 25.3682 19.9067 24.6561 21.6031 23.347C23.2994 22.038 24.5146 20.2055 25.0593 18.135C25.2781 17.2334 25.3851 16.3083 25.3779 15.3805C25.3972 13.7086 25.3944 12.3079 25.3931 10.669C25.3931 9.64576 25.3931 8.9296 25.3931 7.91459C25.3931 7.30447 25.7213 6.84586 26.2206 6.74394C26.3087 6.72654 26.3983 6.71777 26.4882 6.71777C27.0991 6.71777 27.5364 7.16813 27.5488 7.81956C27.5708 8.90619 27.5653 9.72013 27.5598 10.7902V10.6525L27.5281 11.954C27.5281 12.4567 27.5281 12.9442 27.5391 13.4331C27.5515 14.4385 27.5639 15.477 27.5198 16.4713C27.284 21.7681 22.9767 26.5513 17.7122 27.3624C17.051 27.4664 16.3831 27.523 15.7137 27.5318C14.2738 27.5429 12.8339 27.5488 11.394 27.5497Z" fill="#FFCB00"/>
</svg>
