<svg width="44" height="44" viewBox="0 0 44 44" fill="none" xmlns="http://www.w3.org/2000/svg">
<path d="M5.192 22.2777L5.19857 22.3089C6.13304 26.7454 9.12301 30.5544 13.3546 32.4778L22 36.4075V31.7778H26.8889C33.639 31.7778 39.1111 26.3057 39.1111 19.5556V17.1111C39.1111 10.361 33.639 4.88889 26.8889 4.88889H17.1111C10.361 4.88889 4.88889 10.361 4.88889 17.1111V19.5556C4.88889 20.4854 4.99184 21.3853 5.18503 22.2466L5.192 22.2777ZM26.8889 44L11.3315 36.9285C5.66589 34.3532 1.66533 29.2543 0.414647 23.3165C0.143219 22.1063 0 20.8477 0 19.5556V17.1111C0 7.66091 7.66091 0 17.1111 0H26.8889C36.3391 0 44 7.66091 44 17.1111V19.5556C44 29.0058 36.3391 36.6667 26.8889 36.6667V44Z" fill="#121212"/>
</svg>
